<svg xmlns="http://www.w3.org/2000/svg" xmlns:xlink="http://www.w3.org/1999/xlink" viewBox="0,0,256,256" width="50px" height="50px" fill-rule="nonzero"><g fill-opacity="0" fill="#ffffff" fill-rule="nonzero" stroke="none" stroke-width="1" stroke-linecap="butt" stroke-linejoin="miter" stroke-miterlimit="10" stroke-dasharray="" stroke-dashoffset="0" font-family="none" font-weight="none" font-size="none" text-anchor="none" style="mix-blend-mode: normal"><g transform="scale(5.12,5.12)"><path d="M25,2c-12.69141,0 -23,10.30859 -23,23c0,12.69141 10.30859,23 23,23c12.69141,0 23,-10.30859 23,-23c0,-12.69141 -10.30859,-23 -23,-23zM25,4c11.60938,0 21,9.39063 21,21c0,11.60938 -9.39062,21 -21,21c-11.60937,0 -21,-9.39062 -21,-21c0,-11.60937 9.39063,-21 21,-21zM23.64063,10.44922c-0.07422,0 -0.14844,0.01172 -0.21875,0.02734c-3.95312,0.94141 -8.02734,3.71094 -11.08984,7.13281c-3.05859,3.42578 -5.16797,7.53125 -4.69922,11.37109c0.05469,0.42578 0.375,0.77344 0.80078,0.85938c0.42188,0.08203 0.85156,-0.11328 1.06641,-0.49219c1.95313,-3.45312 3.57031,-5.36328 4.72266,-6.37891c1.15234,-1.01953 1.89453,-1.10937 1.83594,-1.10937c0.07422,0 0.09375,0.00391 0.11328,0.00391c-0.02344,-0.02344 0.01563,-0.00391 0.01563,0.24609v10.48438c0,0.12109 0,0.08984 0.00391,0.07813c-0.12891,0.03125 -0.55078,0.01563 -0.95312,-0.04687c-0.39062,-0.05469 -0.78125,0.12109 -0.99219,0.45703c-0.21094,0.33594 -0.20703,0.76172 0.01563,1.08984c3.48438,5.19531 11.10547,5.375 11.10547,5.375c0.29297,0.01563 0.57813,-0.10156 0.77734,-0.32031l2.58203,-2.80469l2.38281,2.03906c0.33984,0.28906 0.82422,0.32031 1.19531,0.07813c2.50391,-1.62109 4.53906,-3.76562 5.96875,-5.62109c0.71484,-0.92578 1.27734,-1.78125 1.67578,-2.47656c0.19531,-0.34766 0.35156,-0.65625 0.46875,-0.92969c0.11719,-0.27734 0.22266,-0.45312 0.22266,-0.88281c0.00391,-0.41406 -0.25391,-0.78516 -0.63672,-0.93359c-0.38672,-0.14844 -0.82422,-0.04687 -1.10156,0.26172c-1.10156,1.21094 -2.09375,1.90234 -2.83984,2.28906c-0.74609,0.38281 -1.35937,0.44531 -1.23828,0.44531c-0.08984,0 -0.11719,-0.01172 -0.19141,-0.01953v-12.10156c0,0.19141 0.07813,-0.24219 0.33984,-0.69141c0.26563,-0.44922 0.64844,-1.01172 1.07031,-1.58203c0.83594,-1.13672 1.79688,-2.30078 2.28516,-2.92578c0.26563,-0.33594 0.28516,-0.80469 0.05078,-1.16406c-0.23437,-0.35937 -0.67187,-0.52734 -1.08594,-0.42187c-3.21484,0.84375 -5.46875,2.07422 -6.92969,3.11719c-1.03125,0.73438 -1.24219,1.05078 -1.53906,1.37891c-0.07812,-0.03516 -0.0625,-0.04297 -0.15234,-0.07422c-0.53906,-0.19141 -1.32422,-0.37109 -2.35547,-0.37109c-0.41797,0 -0.78906,0.26172 -0.9375,0.65234c-0.14453,0.39453 -0.02734,0.83594 0.28906,1.10547c0.58594,0.50391 1.29688,1.40234 1.29688,2.13672v10.84375c-0.19531,0.12891 -0.28906,0.20703 -0.66016,0.41406c-0.60156,0.33594 -1.39062,0.60938 -1.57422,0.60938c-0.45312,0 -0.77734,-0.10937 -0.91406,-0.19922c-0.13281,-0.08984 -0.12891,-0.07422 -0.12891,-0.21484v-13.60937c0.00391,-0.35937 -0.19141,-0.69141 -0.50391,-0.87109c-0.3125,-0.17578 -0.69531,-0.17187 -1.00781,0.01172c-0.07812,-0.19531 -0.1875,-0.66797 -0.1875,-1.46484c0,-0.375 0.47266,-1.23047 1.07031,-1.88672c0.59766,-0.65234 1.20313,-1.11719 1.20313,-1.11719c0.34375,-0.26562 0.48047,-0.71484 0.33984,-1.125c-0.14453,-0.40625 -0.53125,-0.67969 -0.96094,-0.67187zM20.33203,14.03516c-0.15234,0.38672 -0.34375,0.75391 -0.34375,1.21484c0,0.95703 0.10547,1.66016 0.33984,2.23047c0.23828,0.57031 0.6875,1.03125 1.19531,1.19922c0.06641,0.02344 0.10156,-0.01562 0.16406,-0.00391v12.50781c0,0.76563 0.43359,1.48828 1.01953,1.87891c0.58984,0.39063 1.28516,0.53516 2.02344,0.53516c1.00781,0 1.83594,-0.46484 2.55078,-0.86328c0.71484,-0.39844 1.26563,-0.79687 1.26563,-0.79687c0.26172,-0.19141 0.41797,-0.49219 0.41797,-0.8125v-11.39453c0,-0.54297 -0.25391,-0.94141 -0.43359,-1.38281c0.42578,0.21875 0.94922,0.10156 1.24609,-0.27734c0,0 0.47266,-0.63281 1.75,-1.53906c0.73828,-0.52734 1.82031,-1.10937 3.10156,-1.67187c-0.07812,0.10156 -0.125,0.15234 -0.19922,0.25391c-0.44141,0.60156 -0.85937,1.20313 -1.17969,1.75781c-0.32422,0.55469 -0.61719,0.96875 -0.61719,1.69922v12.44141c0,0.35156 0.12891,0.73438 0.34766,1.00391c0.21875,0.26563 0.48828,0.41406 0.72266,0.50391c0.46484,0.17969 0.85156,0.17188 1.12109,0.17188c0.35938,0 0.88281,-0.24609 1.35547,-0.42187c-1.16016,1.41406 -2.65234,2.89844 -4.39844,4.13672l-2.48828,-2.12891c-0.41016,-0.35156 -1.02344,-0.31641 -1.38672,0.08203l-2.85937,3.10938c-0.58594,-0.04687 -4.875,-0.58984 -7.80078,-3.19922c0.17969,-0.10937 0.375,-0.14453 0.51953,-0.32812c0.29297,-0.37109 0.42188,-0.85937 0.42188,-1.34766v-10.48437c0,-0.58203 -0.14062,-1.17969 -0.55859,-1.625c-0.41406,-0.44922 -1.02344,-0.625 -1.57031,-0.625c-0.00391,0 -0.00391,0 -0.00391,0c-0.79687,0 -1.77344,0.39063 -3.15234,1.60938c-0.73047,0.64063 -1.56641,1.57031 -2.47656,2.78125c0.73438,-1.78906 1.89453,-3.625 3.39844,-5.30469c1.86719,-2.08594 4.17578,-3.67969 6.50781,-4.91016z"></path></g></g></svg>